<svg xmlns="http://www.w3.org/2000/svg" viewBox="0 0 180 180" width="180" height="180" aria-label="JotilLabs">
  <rect width="180" height="180" fill="#FFFFFF" rx="36" />
  <svg x="15" y="20" width="150" height="140" viewBox="0 0 1663 1480">
    <path fill="#2868B2" d="M510.059509,924.027344 C509.985748,922.200439 509.846741,920.373352 509.847626,918.546448 C509.890442,831.894958 509.937256,745.243530 510.002258,658.592041 C510.035889,613.766907 510.090027,568.941772 510.160706,524.116638 C510.231873,478.961578 510.300446,433.806458 510.433319,388.651550 C510.585266,337.002808 510.849884,285.354340 510.899750,233.705612 C510.903015,230.326172 512.113831,228.743286 514.849731,227.206406 C575.919922,192.900421 636.945068,158.514313 697.979858,124.145287 C745.592529,97.334335 793.247559,70.597939 840.758240,43.607441 C845.620117,40.845406 849.170044,40.987953 853.923279,43.802937 C893.003601,66.947372 932.196289,89.903366 971.443970,112.763527 C1034.641113,149.573318 1097.927124,186.230530 1161.136963,223.018845 C1221.072632,257.901672 1280.958740,292.869690 1340.864868,327.803436 C1342.292969,328.636230 1343.699341,329.506317 1345.716064,330.720215 C1344.029053,331.621063 1342.825928,332.361176 1341.547241,332.932312 C1296.152344,353.207855 1250.765747,373.502563 1205.292847,393.601898 C1203.469238,394.407928 1200.400635,394.068176 1198.613159,393.041595 C1148.999878,364.547241 1099.494385,335.865143 1049.934204,307.278107 C1015.408630,287.363373 980.791565,267.607178 946.283630,247.662125 C913.735840,228.850006 881.278503,209.881271 848.774048,190.994034 C847.518188,190.264267 846.185974,189.665894 845.015686,189.070541 C845.683167,369.848816 846.349976,550.430969 846.736145,731.618652 C840.974426,735.348267 835.487305,738.461975 830.013306,741.598450 C809.995300,753.068237 789.994812,764.568542 769.962646,776.013550 C750.359314,787.213623 730.692322,798.302551 711.114014,809.545959 C690.245422,821.530273 669.485718,833.704285 648.609436,845.675110 C626.575562,858.309753 604.429993,870.749451 582.388855,883.371521 C560.928894,895.660767 539.554504,908.099426 518.099121,920.396667 C515.559753,921.852112 512.746033,922.828796 510.059509,924.027344 z" />
    <path fill="#3853A4" d="M1446.157593,1076.072510 C1445.033081,1077.291016 1444.124023,1078.882324 1442.753174,1079.674438 C1367.390381,1123.226440 1291.976929,1166.690552 1216.593872,1210.207886 C1095.029297,1280.385010 973.466370,1350.565063 851.991699,1420.897583 C847.548340,1423.470215 844.501099,1423.507568 840.032104,1420.903320 C644.250793,1306.808228 448.381744,1192.863647 252.537186,1078.876953 C251.007095,1077.986450 249.667755,1076.768311 248.625916,1075.306274 C258.692535,1069.429565 268.432892,1064.052979 278.040771,1058.449097 C300.843475,1045.149170 323.550873,1031.685547 346.362946,1018.401794 C357.101624,1012.148438 367.992523,1006.156677 378.814423,1000.046387 C416.730438,1022.065247 454.668976,1044.045410 492.558258,1066.110107 C609.549805,1134.239624 726.530701,1202.387451 843.458923,1270.625488 C846.598511,1272.457764 848.731384,1271.895752 851.584961,1270.258423 C950.997375,1213.223267 1050.459717,1156.275391 1149.903809,1099.295532 C1204.659180,1067.921631 1259.394775,1036.512817 1314.794678,1005.149414 C1336.693481,1016.819885 1357.951782,1028.433838 1379.175781,1040.110229 C1394.581909,1048.585815 1409.895874,1057.229980 1425.345215,1065.625366 C1432.162109,1069.329712 1439.213013,1072.603394 1446.157593,1076.072510 z" />
    <path fill="#3853A4" d="M509.979187,924.385376 C512.746033,922.828796 515.559753,921.852112 518.099121,920.396667 C539.554504,908.099426 560.928894,895.660767 582.388855,883.371521 C604.429993,870.749451 626.575562,858.309753 648.609436,845.675110 C669.485718,833.704285 690.245422,821.530273 711.114014,809.545959 C730.692322,798.302551 750.359314,787.213623 769.962646,776.013550 C789.994812,764.568542 809.995300,753.068237 830.013306,741.598450 C835.487305,738.461975 840.974426,735.348267 846.777466,732.081909 C863.640808,741.446411 880.220886,750.886658 896.715454,760.473999 C927.305176,778.253906 957.843506,796.122009 988.405640,813.949341 C1051.682373,850.859802 1114.960815,887.767334 1178.236816,924.679199 C1179.086792,925.175049 1179.912720,925.712341 1181.265625,926.549316 C1178.751709,928.107666 1176.602295,929.519043 1174.380737,930.805725 C1070.735718,990.837097 967.086243,1050.860718 863.428833,1110.870483 C858.113831,1113.947510 852.730713,1119.235107 847.369141,1119.248047 C842.017944,1119.260864 836.617004,1113.994873 831.301025,1110.933350 C726.358704,1050.495728 621.422668,990.047424 516.509644,929.559082 C514.161194,928.205078 512.096130,926.359558 509.979187,924.385376 z" />
    <path fill="#2868B2" d="M378.720062,999.582336 C367.992523,1006.156677 357.101624,1012.148438 346.362946,1018.401794 C323.550873,1031.685547 300.843475,1045.149170 278.040771,1058.449097 C268.432892,1064.052979 258.692535,1069.429565 248.677719,1074.971436 C248.371353,1053.544922 248.374893,1032.056519 248.432449,1010.568298 C248.663651,924.256470 248.875626,837.944580 249.164856,751.632935 C249.389297,684.655945 249.731705,617.679504 249.995132,550.702698 C250.164215,507.714661 250.265060,464.726349 250.441711,421.738373 C250.486877,410.744537 250.606354,399.748413 250.946854,388.761261 C250.997681,387.120758 252.020935,384.785156 253.327713,384.014130 C294.316742,359.830170 335.396393,335.799774 376.469452,311.758301 C376.868927,311.524475 377.365051,311.455688 378.573517,311.064941 C378.573517,313.820770 378.573547,316.259308 378.573547,318.697815 C378.573212,543.671814 378.572784,768.645874 378.574768,993.619873 C378.574768,995.452698 378.607971,997.285461 378.720062,999.582336 z" />
    <path fill="#2868B2" d="M1446.317871,1075.694702 C1439.213013,1072.603394 1432.162109,1069.329712 1425.345215,1065.625366 C1409.895874,1057.229980 1394.581909,1048.585815 1379.175781,1040.110229 C1357.951782,1028.433838 1336.693481,1016.819885 1315.115967,1005.036011 C1314.802490,944.915710 1314.833740,884.938538 1314.840576,824.961365 C1314.850708,736.660950 1314.872314,648.360535 1314.749146,560.060303 C1314.743530,556.037170 1315.950684,553.932251 1319.521362,552.040466 C1360.007202,530.590820 1400.395630,508.957581 1440.816162,487.384796 C1442.396240,486.541473 1444.036865,485.811554 1446.571289,484.581207 C1446.571289,488.863220 1446.571289,492.450226 1446.571289,496.037201 C1446.571899,688.465393 1446.572388,880.893555 1446.568848,1073.321777 C1446.568848,1073.986816 1446.509766,1074.651855 1446.317871,1075.694702 z" />
    <path fill="#9AB5E0" d="M1587.997803,287.000031 C1608.785767,311.643188 1613.422729,339.421478 1605.181152,369.580658 C1597.569946,397.433441 1580.673584,418.445557 1555.535889,432.452362 C1540.478394,440.842377 1523.909424,445.635193 1506.701538,443.782318 C1470.089355,439.840149 1443.871216,416.523987 1436.042236,380.638763 C1425.200562,330.943420 1458.978394,277.200378 1508.793701,264.736176 C1539.051392,257.165436 1565.719604,264.097931 1587.997803,287.000031 z" />
    <path fill="#9AB5E0" d="M1347.898193,379.968323 C1371.107422,388.258270 1385.319824,412.384766 1385.195068,434.847229 C1385.030029,464.624084 1372.326538,486.897797 1347.013916,501.456207 C1310.035645,522.723938 1264.048096,505.231384 1257.444336,459.538666 C1251.784546,420.376648 1280.065430,382.773773 1318.480591,377.292236 C1328.077881,375.922760 1338.114136,375.978485 1347.898193,379.968323 z" />
    <path fill="#9AB5E0" d="M1129.334961,505.566650 C1135.656982,486.974060 1147.535400,474.899689 1166.663452,470.606873 C1190.020264,465.365051 1211.517822,483.107147 1212.181763,507.018524 C1212.730957,526.796692 1204.948120,541.572571 1188.595459,551.807678 C1166.859131,565.412354 1135.151001,558.096313 1128.736694,527.691589 C1127.279907,520.786133 1128.963989,513.218018 1129.334961,505.566650 z" />
  </svg>
</svg>
